<svg xmlns="http://www.w3.org/2000/svg" viewBox="0 0 200 200" width="192" height="192">
<defs>
<linearGradient id="g" x1="0" y1="0" x2="1" y2="1">
<stop offset="0" stop-color="#4ade80"/><stop offset="1" stop-color="#16a34a"/>
</linearGradient>
<linearGradient id="g2" x1="0" y1="0" x2="0" y2="1">
<stop offset="0" stop-color="#86efac"/><stop offset="1" stop-color="#22c55e"/>
</linearGradient>
</defs>
<rect width="200" height="200" rx="38" fill="#14532d"/>

<path d="M148,66 C148,44 120,38 100,52 C82,64 82,88 100,100 C118,112 118,138 100,150 C80,164 52,156 52,134" fill="none" stroke="url(#g2)" stroke-width="34" stroke-linecap="round"/>
<!-- leaf tips -->
<path d="M148,66 C156,52 168,46 176,40 C172,52 166,64 154,72 Z" fill="#86efac"/>
<path d="M52,134 C44,148 32,154 24,160 C28,148 34,136 46,128 Z" fill="#22c55e"/>
<!-- vein -->
<path d="M148,66 C148,44 120,38 100,52 C82,64 82,88 100,100 C118,112 118,138 100,150 C80,164 52,156 52,134" fill="none" stroke="#14532d" stroke-width="3" stroke-linecap="round" opacity="0.45"/>

</svg>