<svg xmlns="http://www.w3.org/2000/svg" viewBox="0 0 200 200" width="384" height="384">
<defs>
<linearGradient id="gT" x1="0" y1="0" x2="1" y2="1"><stop offset="0" stop-color="#86efac"/><stop offset="1" stop-color="#4ade80"/></linearGradient>
<linearGradient id="gB" x1="1" y1="1" x2="0" y2="0"><stop offset="0" stop-color="#16a34a"/><stop offset="1" stop-color="#22c55e"/></linearGradient>
</defs><rect width="200" height="200" rx="38" fill="#14532d"/>
<path d="M100,100 C100,72 116,46 150,64 C156,50 168,46 178,42 C174,56 168,66 158,74 C150,90 124,100 100,100 Z" fill="url(#gT)"/>
<path d="M100,100 C100,128 84,154 50,136 C44,150 32,154 22,158 C26,144 32,134 42,126 C50,110 76,100 100,100 Z" fill="url(#gB)"/>
<ellipse cx="120" cy="86" rx="9" ry="13" fill="url(#gT)" transform="rotate(35 120 86)"/>
<ellipse cx="80" cy="114" rx="9" ry="13" fill="url(#gB)" transform="rotate(35 80 114)"/>
<path d="M150,66 C124,78 116,90 108,100" stroke="#14532d" stroke-width="3" fill="none" opacity="0.4" stroke-linecap="round"/>
<path d="M50,134 C76,122 84,110 92,100" stroke="#14532d" stroke-width="3" fill="none" opacity="0.4" stroke-linecap="round"/>
</svg>